<?xml version="1.0" standalone="no"?>
<!DOCTYPE svg PUBLIC "-//W3C//DTD SVG 20010904//EN"
 "http://www.w3.org/TR/2001/REC-SVG-20010904/DTD/svg10.dtd">
<svg version="1.0" xmlns="http://www.w3.org/2000/svg"
 width="520.000000pt" height="520.000000pt" viewBox="0 0 520.000000 520.000000"
 preserveAspectRatio="xMidYMid meet">

<g transform="translate(0.000000,520.000000) scale(0.100000,-0.100000)"
fill="#000000" stroke="none">
<path d="M2442 5080 c-1005 -388 -1726 -910 -2283 -1653 l-97 -129 -8 -97 c-9
-130 2 -459 21 -606 95 -728 375 -1443 848 -2162 l100 -152 77 -30 c136 -52
366 -110 595 -150 766 -135 1561 -106 2185 79 119 36 270 87 285 98 6 4 42 52
81 107 423 604 722 1286 838 1918 47 254 60 403 61 693 l0 271 -74 99 c-476
634 -1133 1160 -1925 1539 -159 76 -347 157 -477 205 l-76 28 -151 -58z m378
-183 c162 -66 501 -234 660 -327 580 -338 1062 -753 1442 -1242 l76 -97 7 -98
c10 -122 0 -375 -20 -553 -78 -679 -378 -1428 -832 -2080 l-73 -106 -128 -42
c-431 -142 -865 -200 -1402 -189 -510 11 -1009 86 -1354 205 l-79 27 -67 100
c-432 643 -733 1385 -824 2030 -35 246 -49 625 -27 702 22 76 260 364 495 599
351 350 689 593 1171 840 207 106 402 194 610 274 l120 47 50 -19 c28 -11 106
-43 175 -71z"/>
<path d="M2455 4886 c-916 -348 -1597 -840 -2125 -1534 -96 -126 -95 -120 -87
-456 7 -308 33 -485 117 -811 141 -547 440 -1165 754 -1562 l65 -82 83 -26
c462 -143 1005 -214 1538 -202 348 8 602 39 884 106 226 55 359 99 384 129 38
44 244 359 309 472 250 434 438 925 528 1375 51 255 66 396 72 658 l6 237 -71
93 c-367 482 -854 904 -1437 1246 -246 145 -804 411 -858 411 -12 0 -85 -25
-162 -54z m327 -67 c766 -336 1384 -766 1850 -1286 156 -174 278 -327 287
-360 33 -113 -6 -591 -74 -913 -120 -566 -409 -1210 -767 -1707 l-59 -82 -97
-30 c-778 -239 -1714 -237 -2575 6 -148 42 -146 40 -283 235 -230 328 -434
736 -571 1143 -143 427 -213 856 -201 1238 l5 157 86 113 c514 675 1185 1157
2092 1503 77 29 141 53 142 54 2 0 76 -32 165 -71z"/>
<path d="M2480 4371 c0 -102 5 -116 35 -105 15 6 16 16 11 68 -7 67 -9 68 52
-18 23 -34 38 -46 53 -44 11 2 20 6 19 11 0 4 0 48 0 97 0 83 -2 90 -20 90
-16 0 -19 -8 -22 -62 l-3 -63 -40 63 c-29 45 -46 62 -62 62 -22 0 -23 -3 -23
-99z"/>
<path d="M2370 4448 c0 -7 5 -42 11 -77 12 -74 0 -98 -44 -87 -21 5 -26 14
-31 53 -13 93 -17 103 -38 103 -19 0 -20 -4 -14 -60 13 -117 39 -148 112 -134
57 11 68 32 60 121 -4 42 -9 80 -12 85 -8 13 -44 9 -44 -4z"/>
<path d="M2726 4369 c-25 -51 -43 -96 -40 -101 10 -17 35 -7 46 18 11 24 16
25 53 19 22 -3 41 -10 43 -14 8 -24 31 -44 44 -38 13 5 11 20 -17 104 -29 88
-35 98 -58 101 -23 3 -30 -5 -71 -89z m83 -16 c1 -7 -10 -13 -24 -13 l-26 0
17 32 c16 30 18 31 25 13 4 -11 8 -26 8 -32z"/>
<path d="M2955 4428 c-15 -45 -43 -173 -39 -180 18 -28 54 25 54 79 0 6 4 14
9 17 5 4 19 -23 31 -58 15 -45 28 -67 41 -71 11 -4 22 -5 24 -3 3 3 45 182 45
192 0 3 -9 6 -19 6 -20 0 -24 -8 -36 -67 -4 -18 -10 -33 -14 -33 -4 0 -18 29
-30 65 -18 49 -28 65 -42 65 -11 0 -22 -6 -24 -12z"/>
<path d="M2084 4409 c-66 -19 -93 -96 -55 -157 37 -59 111 -66 170 -16 27 23
29 27 19 62 -6 20 -11 38 -13 40 -2 2 -22 -2 -44 -9 -29 -9 -41 -17 -39 -28 2
-11 12 -15 31 -13 34 4 35 -12 1 -34 -37 -25 -76 -9 -90 36 -14 41 -4 66 31
82 18 8 28 8 39 -1 16 -13 56 -6 56 9 0 10 -53 41 -67 39 -4 0 -22 -5 -39 -10z"/>
<path d="M1904 4346 c-3 -8 1 -27 9 -43 38 -75 34 -79 -34 -31 -60 42 -100 52
-99 25 1 -7 16 -48 35 -92 25 -60 39 -81 54 -83 26 -4 26 4 0 63 -11 25 -19
48 -17 50 2 3 30 -14 61 -36 41 -29 63 -39 78 -34 11 4 18 12 16 18 -66 169
-88 203 -103 163z"/>
<path d="M3261 4338 c-5 -13 -20 -51 -35 -85 -30 -73 -31 -79 -10 -87 11 -4
21 7 36 44 11 28 24 50 28 50 4 0 13 -28 19 -62 10 -58 22 -78 46 -78 6 0 26
42 46 93 32 81 35 93 20 98 -20 8 -24 4 -46 -55 -20 -54 -28 -49 -40 24 -9 56
-21 80 -41 80 -8 0 -18 -10 -23 -22z"/>
<path d="M3460 4184 c-41 -36 -76 -69 -78 -73 -6 -16 31 -21 52 -8 32 22 86
-6 86 -44 0 -25 22 -45 39 -34 5 2 11 50 15 106 7 102 3 120 -29 118 -5 0 -44
-30 -85 -65z m73 -26 c-5 -29 -26 -37 -39 -17 -5 9 35 53 42 46 1 -1 0 -14 -3
-29z"/>
<path d="M1632 4232 c-10 -7 -11 -28 -2 -103 6 -52 13 -100 15 -106 8 -24 35
-1 35 28 0 24 7 33 36 46 28 14 39 15 54 5 23 -14 47 -16 54 -3 7 11 -147 141
-166 141 -7 0 -19 -4 -26 -8z m83 -82 c5 -8 -24 -30 -39 -30 -3 0 -6 14 -6 30
0 27 2 30 19 20 11 -5 23 -14 26 -20z"/>
<path d="M3677 4133 c-24 -27 -21 -60 8 -95 28 -33 32 -53 11 -61 -21 -8 -54
20 -58 51 -4 37 -32 36 -36 -2 -4 -33 24 -68 70 -87 25 -10 33 -9 56 8 39 29
40 64 1 108 -24 28 -29 39 -20 48 16 16 44 -2 51 -34 3 -13 14 -25 23 -27 13
-3 17 4 17 26 0 57 -87 103 -123 65z"/>
<path d="M1418 4107 c-26 -18 -46 -37 -44 -43 9 -24 109 -154 119 -154 6 0 34
18 64 40 37 29 53 48 53 64 0 26 -28 56 -53 56 -11 0 -17 8 -17 23 0 55 -52
61 -122 14z m85 -22 c4 -9 -5 -22 -22 -35 -26 -18 -30 -18 -42 -4 -11 14 -10
19 10 35 28 23 47 24 54 4z m55 -71 c4 -25 -49 -59 -66 -42 -19 19 -14 36 16
52 33 18 46 16 50 -10z"/>
<path d="M3803 3975 c-35 -41 -63 -79 -63 -85 0 -9 4 -11 29 -14 4 -1 36 32
70 73 49 58 59 76 50 87 -6 8 -14 14 -18 14 -3 -1 -34 -34 -68 -75z"/>
<path d="M1290 4012 l-24 -19 32 -56 c18 -31 32 -59 32 -62 0 -3 -25 11 -55
31 -51 34 -58 36 -80 24 -14 -7 -25 -17 -25 -22 0 -15 124 -148 137 -148 28 0
22 24 -16 65 -23 25 -41 47 -41 50 0 3 24 -10 52 -30 85 -57 106 -41 63 46
l-27 54 45 -44 c41 -39 67 -47 67 -19 0 10 -116 140 -130 146 -4 1 -17 -6 -30
-16z"/>
<path d="M3894 3941 c-38 -23 -67 -81 -58 -116 10 -39 59 -75 104 -75 57 0
110 52 110 108 0 33 -6 45 -35 71 -41 36 -76 39 -121 12z m94 -37 c29 -20 28
-55 -4 -88 -30 -29 -65 -34 -88 -10 -24 23 -19 54 11 86 30 32 49 35 81 12z"/>
<path d="M1944 3835 c-42 -25 -85 -78 -104 -130 l-11 -29 -22 39 c-18 31 -29
41 -54 43 l-31 3 11 -41 c13 -48 5 -58 -65 -84 -72 -27 -118 -95 -118 -177 0
-14 -6 -33 -13 -43 -12 -16 -16 -10 -41 53 -15 39 -31 71 -36 71 -4 0 -48 -42
-98 -94 -98 -103 -151 -192 -154 -261 -1 -22 2 -80 6 -130 l8 -90 -49 -61
c-128 -158 -123 -248 23 -439 83 -109 124 -184 124 -228 0 -24 -24 -87 -34
-87 -2 0 -17 29 -35 64 -39 81 -89 126 -136 126 -41 0 -42 -2 -14 -42 33 -46
57 -136 75 -281 15 -130 16 -133 52 -170 20 -21 71 -63 112 -93 131 -94 125
-85 128 -179 l4 -82 -62 -17 c-73 -21 -205 -36 -315 -36 l-79 0 69 -70 69 -69
-57 -60 c-84 -88 -81 -91 66 -85 310 13 403 32 466 95 l38 39 911 0 912 0 92
-39 c51 -22 131 -47 177 -55 99 -19 401 -23 401 -5 0 6 -30 45 -66 87 l-67 76
72 65 c40 37 69 70 65 74 -5 4 -62 5 -129 1 -118 -6 -311 8 -328 25 -4 4 -10
31 -14 59 -7 63 -6 65 113 153 50 37 103 79 117 93 28 28 47 81 47 132 0 98
54 308 85 334 24 20 17 30 -20 30 -45 0 -93 -42 -128 -114 -15 -30 -27 -60
-27 -65 0 -6 -4 -11 -10 -11 -14 0 -40 55 -40 87 0 41 44 127 94 186 64 76
121 169 136 221 23 82 -4 167 -80 260 l-40 48 1 137 c0 79 -4 148 -11 165 -18
48 -93 146 -167 219 -78 77 -76 77 -113 -16 -13 -31 -28 -53 -32 -49 -5 5 -13
34 -18 64 -15 98 -53 146 -131 170 -55 16 -65 31 -52 79 l11 40 -32 -3 c-24
-2 -35 -11 -51 -40 l-19 -36 -31 56 c-44 78 -108 122 -181 122 -29 0 -64 -5
-78 -11 l-25 -12 24 -28 c46 -56 66 -133 75 -292 12 -209 21 -225 157 -292
196 -96 284 -211 243 -319 -20 -53 -70 -22 -109 67 -15 36 -25 48 -38 45 -15
-3 -19 -21 -28 -123 -14 -172 -7 -211 53 -293 27 -37 54 -77 61 -89 27 -52 2
-133 -40 -133 -11 0 -53 31 -94 70 -41 39 -78 70 -82 70 -31 -1 -38 -22 -41
-121 -4 -99 -6 -105 -42 -163 -20 -34 -56 -92 -78 -131 -59 -102 -130 -160
-182 -148 -17 4 -50 57 -50 80 0 8 36 53 79 99 89 94 135 175 153 269 9 51 7
81 -11 193 -31 193 -26 261 22 301 24 20 21 41 -6 41 -25 0 -149 -40 -186 -59
-21 -12 -21 -11 -21 109 l0 120 -27 -6 c-16 -4 -45 -18 -66 -31 l-38 -24 -27
20 c-15 11 -49 42 -76 70 l-48 50 -43 -57 c-23 -31 -52 -66 -64 -76 -20 -19
-24 -19 -74 -3 -70 21 -124 30 -142 23 -12 -4 -13 -10 -4 -29 12 -28 -5 -137
-22 -137 -5 0 -36 11 -69 25 -67 28 -110 32 -110 11 0 -8 5 -18 10 -21 6 -4
20 -25 31 -48 28 -53 27 -118 -1 -249 -46 -209 -5 -352 148 -519 58 -64 65
-93 29 -127 -56 -53 -109 -16 -203 144 -31 52 -66 107 -79 122 l-23 27 -6 -25
c-8 -36 -14 -80 -15 -115 l-2 -30 -24 40 c-42 67 -45 95 -27 219 19 131 12
189 -24 194 -16 2 -31 -14 -69 -72 -26 -41 -55 -78 -63 -81 -24 -9 -44 18 -49
66 -5 46 6 68 89 177 31 42 33 49 36 140 4 142 -8 246 -31 250 -12 3 -23 -10
-38 -45 -38 -90 -89 -120 -110 -65 -25 64 17 163 97 229 26 21 92 61 148 88
134 66 144 84 156 287 10 160 26 226 69 285 l29 41 -24 11 c-44 20 -125 13
-170 -14z m-279 -465 c-9 -35 -15 -38 -31 -16 -17 24 -18 48 -2 64 18 18 41
-15 33 -48z m1859 18 c7 -11 6 -24 -2 -42 -15 -34 -29 -33 -34 2 -8 57 11 79
36 40z m-2070 -254 c26 -10 20 -51 -8 -56 -31 -6 -56 8 -56 31 0 30 25 40 64
25z m1220 -85 c14 -17 26 -36 26 -42 -1 -14 -77 -97 -89 -97 -6 0 -103 68
-118 84 -3 3 18 32 47 65 l53 61 28 -20 c15 -11 39 -34 53 -51z m1081 41 c0
-22 -4 -25 -35 -25 -26 0 -36 5 -38 19 -5 23 15 37 48 34 19 -2 25 -9 25 -28z
m-910 -147 l-7 -108 -44 -33 c-24 -18 -50 -35 -56 -37 -13 -4 -98 103 -98 123
0 28 193 183 208 167 2 -2 1 -52 -3 -112z m-396 31 c57 -28 97 -58 158 -119
110 -109 111 -119 34 -191 -34 -31 -61 -60 -61 -65 0 -22 28 -4 100 64 114
109 238 188 332 211 l27 6 -14 -35 c-19 -43 -19 -150 0 -235 19 -85 19 -214 0
-276 -19 -65 -60 -126 -147 -219 -67 -72 -70 -77 -63 -112 8 -42 54 -93 85
-93 32 0 94 35 127 73 17 19 56 78 87 131 31 53 61 96 66 96 15 0 12 -131 -4
-184 -19 -61 -95 -165 -107 -144 -7 12 -20 12 -96 -4 -267 -54 -616 -49 -841
11 -32 9 -50 25 -91 77 -51 66 -51 67 -51 140 0 41 4 74 10 74 5 0 26 -30 46
-67 83 -150 127 -195 191 -195 44 0 81 34 89 83 5 31 -1 42 -65 119 -145 175
-177 287 -132 475 34 140 36 186 12 240 -12 27 -19 51 -16 54 10 10 97 -29
164 -73 205 -136 393 -384 413 -545 2 -14 9 -27 17 -29 20 -7 9 79 -20 143
-56 127 -199 306 -308 385 -35 25 -76 56 -92 70 l-30 25 15 60 c9 32 13 68 10
79 -6 17 -2 18 36 13 24 -3 77 -22 119 -43z m-1026 -313 c-8 -11 -33 25 -33
48 1 25 2 25 19 -9 9 -19 16 -37 14 -39z m2317 -15 c-12 -11 -20 -16 -18 -11
3 6 11 25 19 44 12 30 14 31 17 11 2 -14 -5 -31 -18 -44z m-2122 -481 c63 -57
68 -85 17 -85 -43 0 -76 31 -93 88 -23 76 -12 76 76 -3z m1992 -15 c-15 -57
-50 -90 -95 -90 -39 0 -44 13 -19 48 23 33 118 106 122 94 2 -6 -2 -29 -8 -52z
m-570 -400 c0 -109 0 -110 23 -106 12 3 51 8 87 11 106 10 230 43 312 83 l77
38 3 -126 3 -125 84 -22 c117 -31 250 -46 369 -41 56 1 102 1 102 -2 -1 -3
-26 -25 -55 -50 -30 -24 -55 -47 -55 -51 0 -4 25 -36 55 -72 30 -35 55 -67 55
-70 0 -14 -120 -18 -216 -8 -124 13 -207 33 -286 68 l-58 26 0 99 c0 89 -2 99
-16 94 -56 -21 -185 -48 -306 -63 -121 -14 -141 -15 -149 -2 -5 8 -9 54 -9
103 l0 89 -57 -7 c-327 -40 -500 -45 -728 -21 -77 8 -143 15 -147 15 -5 0 -8
-47 -8 -105 0 -121 14 -110 -125 -95 -131 15 -233 38 -294 66 -29 13 -54 24
-55 24 -1 0 0 -33 2 -73 7 -124 -36 -182 -154 -211 -50 -13 -392 -38 -403 -30
-2 2 21 28 50 59 l53 56 -54 54 -54 55 50 0 c144 0 300 34 423 91 l84 39 -5
100 c-3 55 -3 100 -1 100 3 0 43 -14 90 -30 140 -50 370 -79 388 -50 4 6 9 51
12 100 7 104 -2 99 124 73 127 -27 547 -24 674 5 50 11 96 20 103 21 9 1 12
-27 12 -109z"/>
<path d="M2390 1710 c0 -22 5 -40 10 -40 6 0 10 6 10 13 0 8 3 8 9 -2 8 -12
12 -12 24 -2 12 9 16 9 20 -1 3 -7 6 6 6 30 1 47 -15 57 -25 16 l-7 -27 -14
27 c-20 38 -33 32 -33 -14z"/>
<path d="M2504 1733 c15 -55 18 -63 26 -63 5 0 12 10 16 22 l7 23 8 -23 c11
-29 25 -28 33 2 3 13 9 31 12 40 3 9 2 16 -4 16 -5 0 -13 -10 -16 -22 l-7 -23
-9 23 c-5 12 -12 22 -15 22 -3 0 -10 -10 -15 -22 l-9 -23 -7 23 c-3 12 -11 22
-16 22 -5 0 -7 -8 -4 -17z"/>
<path d="M2641 1714 c-7 -19 -10 -39 -6 -42 4 -4 10 -1 12 6 3 6 11 12 18 12
7 0 15 -6 18 -12 2 -7 7 -10 11 -7 8 7 -21 79 -32 79 -4 0 -14 -16 -21 -36z"/>
<path d="M2720 1740 c0 -5 5 -10 10 -10 6 0 10 -13 10 -30 0 -16 5 -30 10 -30
6 0 10 14 10 30 0 17 5 30 10 30 6 0 10 5 10 10 0 6 -13 10 -30 10 -16 0 -30
-4 -30 -10z"/>
<path d="M3397 1644 c-4 -4 -7 -23 -7 -43 0 -27 -3 -32 -12 -23 -7 7 -22 12
-35 12 -13 0 -23 5 -23 11 0 7 10 9 26 5 19 -5 25 -3 22 6 -7 19 -59 16 -72
-5 -13 -21 5 -37 42 -37 12 0 22 -5 22 -10 0 -6 -16 -9 -37 -7 -25 3 -42 12
-55 30 -28 39 -48 25 -48 -34 0 -27 5 -49 10 -49 6 0 10 6 10 14 0 18 25 27
37 15 6 -6 26 -6 54 1 24 6 50 12 58 12 8 1 16 10 19 20 5 20 32 24 50 6 27
-27 23 5 -4 39 -32 39 -46 48 -57 37z"/>
<path d="M1692 1583 c3 -49 22 -68 33 -34 9 29 25 26 25 -4 0 -36 19 -31 36
10 8 19 16 35 19 35 2 0 1 -16 -2 -35 -6 -39 11 -49 21 -12 12 44 7 67 -14 67
-11 0 -23 -7 -26 -15 -9 -22 -24 -18 -24 5 0 27 -24 25 -38 -2 -10 -23 -11
-23 -11 5 -1 15 -6 27 -12 27 -6 0 -9 -19 -7 -47z"/>
<path d="M1845 1597 c-2 -7 -6 -28 -9 -48 -6 -32 -4 -37 16 -41 13 -2 31 -2
40 0 22 4 35 49 21 71 -13 20 -63 34 -68 18z m50 -42 c0 -11 -8 -21 -17 -23
-14 -3 -18 3 -18 23 0 20 4 26 18 23 9 -2 17 -12 17 -23z"/>
<path d="M3179 1574 c-9 -26 -10 -26 -29 -9 -31 28 -37 8 -7 -23 15 -16 27
-33 27 -40 0 -7 6 -12 13 -12 9 0 13 12 13 33 0 17 3 42 7 55 12 32 -11 28
-24 -4z"/>
<path d="M1935 1559 c9 -17 14 -37 11 -45 -3 -7 -1 -16 5 -19 5 -4 12 2 16 12
3 10 15 28 26 40 23 26 16 43 -9 22 -14 -11 -18 -11 -29 4 -22 30 -37 20 -20
-14z"/>
<path d="M2007 1538 c-28 -48 -26 -69 5 -41 19 17 20 17 39 -7 17 -23 19 -23
19 -5 0 30 -20 95 -29 95 -5 0 -20 -19 -34 -42z"/>
<path d="M1064 3795 c-26 -31 -45 -57 -43 -59 2 -1 38 -31 79 -65 l75 -62 53
55 c50 52 59 76 28 76 -8 0 -26 -16 -40 -35 -29 -38 -47 -43 -66 -20 -11 13
-8 21 20 50 26 27 31 38 22 47 -9 9 -19 5 -45 -20 -18 -18 -38 -32 -44 -32
-26 0 -23 24 6 61 29 36 33 59 11 59 -5 0 -30 -25 -56 -55z"/>
<path d="M4065 3764 c-33 -25 -69 -52 -79 -59 -16 -12 -17 -17 -6 -30 11 -13
18 -11 61 21 27 20 49 32 49 27 0 -4 -9 -32 -20 -61 -24 -62 -25 -81 -6 -88
18 -7 166 103 166 122 0 23 -30 16 -72 -17 -21 -17 -41 -29 -43 -27 -3 3 6 33
20 67 20 49 23 66 14 77 -16 19 -17 19 -84 -32z"/>
<path d="M948 3653 c-14 -16 -33 -40 -42 -54 l-16 -26 74 -52 c91 -63 102 -67
110 -45 5 12 -2 24 -20 39 l-26 21 20 37 c23 43 19 71 -11 92 -32 22 -60 18
-89 -12z m68 -34 c6 -11 -14 -59 -26 -59 -3 0 -14 6 -24 13 -15 11 -17 17 -7
35 12 23 45 29 57 11z"/>
<path d="M4240 3580 c-19 -4 -61 -13 -92 -20 -52 -10 -57 -13 -48 -30 8 -14
17 -18 38 -14 23 5 30 0 46 -26 16 -28 16 -35 5 -56 -11 -21 -10 -27 2 -39 13
-14 22 -5 78 72 49 67 62 90 54 102 -12 19 -36 22 -83 11z m13 -64 c-17 -23
-19 -23 -36 -8 -18 16 -18 17 0 23 10 4 26 8 36 8 17 1 17 0 0 -23z"/>
<path d="M4303 3402 l-92 -45 29 -58 c33 -64 40 -71 59 -59 11 6 10 15 -8 43
-11 19 -21 39 -21 46 0 6 32 27 70 46 39 19 70 39 70 43 -1 29 -21 27 -107
-16z"/>
<path d="M789 3400 c-48 -47 -33 -120 25 -120 12 0 37 16 56 35 36 37 57 44
66 21 9 -23 -15 -56 -40 -56 -27 0 -43 -35 -20 -44 58 -22 131 88 89 134 -28
31 -69 25 -114 -15 -46 -42 -53 -43 -49 -8 2 18 10 29 23 32 19 3 34 18 35 32
0 4 -10 9 -21 12 -15 4 -30 -3 -50 -23z"/>
<path d="M698 3189 c-33 -19 -18 -44 67 -111 76 -61 84 -66 90 -47 4 13 0 27
-10 39 -26 28 -4 88 33 92 16 2 28 10 30 21 3 15 -7 17 -95 17 -54 0 -106 -5
-115 -11z m106 -51 c-9 -33 -12 -33 -34 -13 -27 25 -25 30 11 33 27 2 30 0 23
-20z"/>
<path d="M4458 3183 c-10 -2 -18 -11 -18 -19 0 -21 31 -30 44 -13 6 8 19 13
29 11 21 -4 23 14 1 22 -17 6 -29 6 -56 -1z"/>
<path d="M4482 3119 c-28 -11 -24 -33 6 -37 14 -2 22 2 22 11 0 10 7 13 20 10
24 -6 27 12 4 21 -19 7 -23 7 -52 -5z"/>
<path d="M627 2998 c-21 -90 -21 -88 3 -88 15 0 20 7 20 25 0 29 8 30 100 10
82 -18 77 -18 83 4 4 17 -6 22 -77 38 l-81 19 3 32 c2 25 -2 32 -16 32 -15 0
-22 -15 -35 -72z"/>
<path d="M4475 3010 c-132 -82 -128 -99 28 -116 56 -6 104 -10 105 -8 2 1 1
12 -3 23 -5 17 -15 21 -49 21 -24 0 -58 3 -75 6 l-32 7 63 38 c35 22 63 43 62
49 -2 25 -4 30 -11 30 -5 0 -44 -23 -88 -50z"/>
<path d="M596 2864 c-4 -9 -5 -19 -2 -21 2 -2 49 -12 104 -22 90 -16 102 -17
107 -3 9 23 -4 30 -80 42 -38 6 -82 13 -96 16 -19 4 -28 0 -33 -12z"/>
<path d="M4490 2826 l-75 -11 4 -55 c4 -68 16 -101 34 -94 10 3 12 19 9 59 -4
54 -4 55 21 55 23 0 27 -5 33 -45 5 -34 11 -45 24 -45 15 0 16 7 12 50 -4 45
-3 50 16 50 21 0 32 -24 32 -72 0 -22 5 -28 21 -28 20 0 21 3 15 53 -12 90
-15 97 -45 96 -14 -1 -60 -7 -101 -13z"/>
<path d="M613 2779 c-27 -10 -43 -39 -43 -76 0 -35 17 -59 47 -68 26 -7 56 19
86 74 20 37 41 37 45 -2 2 -19 -4 -30 -22 -43 -33 -21 -34 -44 -2 -44 56 0 88
98 46 140 -39 39 -89 21 -114 -40 -9 -22 -23 -40 -31 -40 -22 0 -19 42 5 63
33 28 23 51 -17 36z"/>
<path d="M4610 2621 l0 -31 -67 -1 c-98 -2 -98 -2 -101 -28 -4 -23 -3 -23 80
-20 l83 4 3 -27 c2 -20 9 -28 23 -28 18 0 20 6 17 77 -3 65 -6 78 -20 81 -14
3 -18 -3 -18 -27z"/>
<path d="M720 2565 l-34 -25 -21 20 c-25 24 -54 26 -81 6 -16 -12 -19 -27 -19
-83 l0 -68 105 0 c98 0 105 1 105 20 0 16 -8 21 -42 23 -55 4 -56 23 -3 60 25
17 39 35 40 50 0 28 -8 28 -50 -3z m-70 -69 c0 -19 -4 -37 -9 -40 -19 -12 -41
7 -41 33 0 32 7 41 32 41 14 0 18 -8 18 -34z"/>
<path d="M4436 2427 c-11 -56 -7 -127 8 -127 16 0 26 30 26 78 0 29 3 32 30
32 l29 0 -6 -50 c-5 -46 -4 -50 16 -50 18 0 21 6 21 43 0 50 4 57 31 50 17 -5
19 -11 13 -53 -4 -32 -2 -50 6 -55 19 -12 27 6 35 77 l6 67 -33 5 c-18 3 -65
7 -105 9 l-71 4 -6 -30z"/>
<path d="M742 2323 c3 -53 1 -58 -19 -61 -20 -3 -23 2 -29 47 -5 42 -10 51
-26 51 -18 0 -19 -5 -13 -50 6 -41 4 -51 -9 -56 -23 -9 -29 0 -36 54 -4 35
-10 48 -24 50 -18 4 -18 -1 -12 -62 10 -100 2 -94 118 -79 56 7 102 14 102 15
1 2 -2 36 -7 76 -8 61 -12 72 -28 72 -17 0 -19 -7 -17 -57z"/>
<path d="M4417 2250 c-5 -20 1 -24 58 -32 35 -6 21 -32 -30 -59 -33 -17 -51
-32 -53 -47 -3 -20 -1 -21 30 -10 18 6 39 15 46 21 9 7 18 2 33 -17 20 -26 61
-35 85 -18 14 9 32 65 36 111 l3 35 -70 12 c-38 7 -84 16 -101 19 -26 4 -33 2
-37 -15z m163 -74 c0 -29 -24 -61 -38 -52 -12 7 -17 68 -6 78 13 13 44 -5 44
-26z"/>
<path d="M590 2153 c1 -23 22 -32 87 -38 40 -4 70 -11 68 -16 -3 -4 -30 -22
-60 -39 -50 -29 -67 -54 -49 -72 3 -3 45 19 95 50 68 43 89 61 89 78 0 19 -8
22 -88 33 -103 13 -142 14 -142 4z"/>
<path d="M4380 2063 c0 -9 7 -25 16 -35 26 -27 7 -82 -28 -86 -17 -2 -30 -11
-33 -23 -4 -11 -5 -22 -3 -23 1 -2 53 2 113 8 107 11 110 12 113 36 2 21 -11
34 -78 83 -85 61 -100 67 -100 40z m101 -92 l23 -18 -32 -5 c-28 -4 -32 -2
-32 19 0 28 10 29 41 4z"/>
<path d="M755 1983 c-99 -27 -111 -34 -99 -55 8 -13 23 -11 104 11 66 18 96
31 98 43 5 27 -9 27 -103 1z"/>
<path d="M773 1893 c-51 -20 -93 -39 -93 -42 0 -3 4 -12 9 -19 6 -10 18 -9 61
8 29 11 54 19 56 17 3 -2 -14 -27 -36 -54 -38 -49 -52 -93 -29 -93 6 0 51 15
100 33 65 23 89 37 89 50 0 21 -18 22 -70 1 -23 -9 -43 -14 -46 -12 -2 3 14
28 37 56 29 37 39 57 34 72 -3 11 -9 20 -13 19 -4 0 -49 -17 -99 -36z"/>
<path d="M4306 1854 c-4 -11 9 -22 52 -41 l57 -27 -70 -10 c-124 -19 -126 -38
-7 -89 96 -41 112 -44 112 -21 0 9 -24 26 -57 42 l-58 26 78 11 c56 7 81 15
88 27 11 20 13 18 -91 63 -94 40 -96 40 -104 19z"/>
<path d="M848 1682 c-37 -20 -68 -43 -68 -50 0 -26 29 -22 91 12 69 38 99 36
99 -9 0 -19 -10 -30 -47 -49 -70 -36 -85 -49 -77 -69 5 -15 14 -13 76 20 105
55 117 87 61 153 -32 39 -53 38 -135 -8z"/>
<path d="M4330 1618 c0 -19 12 -34 39 -48 19 -10 25 -10 32 1 5 8 9 17 9 20 0
10 -31 20 -41 13 -5 -3 -12 2 -15 10 -7 19 -24 21 -24 4z"/>
<path d="M4300 1556 c0 -8 12 -24 27 -36 26 -20 28 -20 40 -4 11 15 11 20 -2
27 -8 4 -20 5 -25 2 -6 -3 -13 1 -16 9 -8 20 -24 21 -24 2z"/>
<path d="M1930 1180 l0 -50 644 0 644 0 6 25 c4 14 4 36 0 50 l-6 25 -644 0
-644 0 0 -50z"/>
<path d="M2140 1025 l0 -45 440 0 440 0 0 45 0 45 -440 0 -440 0 0 -45z"/>
<path d="M3093 823 c-17 -17 -18 -28 -9 -131 9 -111 16 -128 44 -100 7 7 12
22 12 34 0 15 12 29 36 43 37 22 37 22 58 2 18 -17 24 -18 44 -7 22 12 21 14
-55 82 -115 102 -109 98 -130 77z m67 -113 c-25 -16 -30 -12 -30 22 l0 32 23
-22 c19 -19 20 -24 7 -32z"/>
<path d="M1949 752 c-46 -80 -72 -97 -77 -50 -3 26 -25 43 -43 32 -5 -3 -9
-18 -9 -34 0 -55 87 -93 122 -52 17 18 88 144 88 155 0 3 -8 11 -18 16 -16 8
-25 -1 -63 -67z"/>
<path d="M2940 778 c-41 -12 -76 -22 -77 -22 -1 -1 0 -11 3 -23 5 -18 10 -20
37 -12 17 5 31 8 32 6 1 -1 10 -33 19 -72 10 -38 20 -78 23 -88 3 -13 10 -16
26 -11 12 3 24 8 25 9 2 2 -6 38 -18 81 -23 84 -21 104 9 104 24 0 33 13 25
34 -8 20 -11 19 -104 -6z"/>
<path d="M2041 692 c-38 -53 -67 -100 -65 -104 10 -15 43 -8 57 13 14 19 18
19 55 8 32 -9 42 -18 47 -39 6 -26 39 -47 49 -32 4 7 -20 208 -28 228 -2 6
-14 14 -25 17 -18 4 -33 -11 -90 -91z m79 -12 c0 -23 -4 -30 -20 -30 -24 0
-25 8 -4 38 20 29 24 28 24 -8z"/>
<path d="M2247 735 c-4 -8 -9 -59 -13 -115 -7 -96 -6 -100 14 -100 20 0 32 18
32 49 0 10 8 26 19 35 18 16 19 14 44 -37 19 -41 32 -56 51 -59 33 -7 33 0 -4
72 -16 33 -30 63 -30 67 1 4 21 24 45 43 l45 35 -32 7 c-28 6 -38 1 -75 -33
-23 -21 -46 -39 -49 -39 -4 0 -4 20 -1 45 6 42 5 45 -17 45 -13 0 -26 -7 -29
-15z"/>
<path d="M2728 741 c-26 -4 -50 -10 -54 -13 -6 -6 11 -161 22 -200 3 -11 15
-18 29 -18 23 0 24 2 18 50 -7 64 6 65 62 6 33 -36 45 -43 68 -39 l27 5 -37
44 c-33 42 -35 46 -19 62 22 25 20 68 -4 92 -21 21 -33 22 -112 11z m80 -63
c-2 -19 -10 -24 -40 -26 -35 -3 -38 -1 -38 22 0 24 4 26 41 26 36 0 40 -2 37
-22z"/>
<path d="M2482 628 c-23 -57 -42 -109 -42 -116 0 -22 44 -9 55 16 8 18 18 22
56 22 42 0 48 -3 53 -25 5 -18 13 -25 31 -25 14 0 25 6 25 13 0 6 -20 57 -43
112 -36 86 -46 100 -68 103 -23 3 -28 -5 -67 -100z m88 -15 c0 -7 -11 -13 -24
-13 -24 0 -24 2 -14 32 10 29 12 30 25 13 7 -11 13 -25 13 -32z"/>
</g>
</svg>
